<svg width="174" height="59" viewBox="0 0 174 59" fill="none" xmlns="http://www.w3.org/2000/svg">
<path d="M20.1708 31.0681C19.676 31.0681 19.2203 30.977 18.8036 30.7947C18.413 30.6124 18.0874 30.352 17.827 30.0134C17.5666 29.6749 17.3843 29.2973 17.2802 28.8806C17.176 28.4379 17.189 27.9692 17.3192 27.4744C17.3192 26.641 17.4624 25.8728 17.7489 25.1697C18.0614 24.4405 18.3999 23.7504 18.7645 23.0994C19.1552 22.4223 19.4937 21.7582 19.7802 21.1072C20.0927 20.4301 20.2489 19.7139 20.2489 18.9587C19.676 18.9587 19.064 19.141 18.413 19.5056C17.7619 19.8702 17.0979 20.352 16.4208 20.9509C15.7697 21.5499 15.1187 22.227 14.4677 22.9822C13.8427 23.7113 13.2437 24.4535 12.6708 25.2087C12.1239 25.9379 11.6421 26.641 11.2255 27.3181C10.8348 27.9952 10.5354 28.5551 10.327 28.9978C10.2749 29.0238 10.1447 29.0499 9.9364 29.0759C9.72807 29.0759 9.59786 29.0759 9.54578 29.0759C9.12911 29.2843 8.86869 29.2843 8.76453 29.0759C8.6864 28.8416 8.6864 28.49 8.76453 28.0212C8.86869 27.5525 9.02494 27.0317 9.23328 26.4587C9.44161 25.8598 9.63692 25.2999 9.81921 24.7791C10.0275 24.2322 10.1838 23.7895 10.288 23.4509C10.3921 23.0863 10.4052 22.9041 10.327 22.9041C10.4052 22.7999 10.4963 22.6306 10.6005 22.3962C10.7046 22.1619 10.8088 21.9145 10.913 21.6541C11.0171 21.3936 11.1083 21.1593 11.1864 20.9509C11.2645 20.7166 11.3036 20.5343 11.3036 20.4041C11.3036 20.1697 11.2124 20.0264 11.0302 19.9744C10.8739 19.8962 10.7177 19.8572 10.5614 19.8572C10.0927 19.5968 9.58484 19.753 9.03796 20.3259C8.51713 20.8728 7.94421 21.6671 7.31921 22.7087C6.72026 23.7244 6.05619 24.8962 5.32703 26.2244C4.6239 27.5264 3.84265 28.7895 2.98328 30.0134C2.38432 30.0134 1.92859 29.9353 1.61609 29.7791C1.30359 29.6228 1.14734 29.2322 1.14734 28.6072C1.35567 28.3207 1.66817 27.7869 2.08484 27.0056C2.50151 26.1983 2.97026 25.3129 3.49109 24.3494C4.01192 23.3858 4.5588 22.4093 5.13171 21.4197C5.73067 20.4301 6.29057 19.5968 6.8114 18.9197C7.35828 18.2166 7.84005 17.7478 8.25671 17.5134C8.69942 17.253 9.05098 17.3702 9.3114 17.865C9.75411 17.5785 10.2359 17.3311 10.7567 17.1228C11.3036 16.9145 11.8505 16.8103 12.3973 16.8103C12.7619 16.8103 13.0614 16.9275 13.2958 17.1619C13.5562 17.3702 13.7515 17.6436 13.8817 17.9822C14.038 18.2947 14.1552 18.6332 14.2333 18.9978C14.3114 19.3363 14.3505 19.6358 14.3505 19.8962C14.6369 19.7139 15.1057 19.4014 15.7567 18.9587C16.4338 18.49 17.1499 18.0212 17.9052 17.5525C18.6864 17.0837 19.4416 16.6801 20.1708 16.3416C20.926 15.977 21.538 15.7947 22.0067 15.7947C22.4234 15.7947 22.7749 15.9509 23.0614 16.2634C23.3739 16.5499 23.5302 16.9145 23.5302 17.3572C22.5927 19.6488 21.8505 21.4848 21.3036 22.865C20.7828 24.2452 20.4312 25.3259 20.2489 26.1072C20.0927 26.8624 20.0927 27.4093 20.2489 27.7478C20.4312 28.0603 20.7437 28.3077 21.1864 28.49C21.8895 28.49 22.5666 28.3728 23.2177 28.1384C23.8687 27.9041 24.5067 27.6436 25.1317 27.3572C25.7828 27.0707 26.4338 26.8103 27.0848 26.5759C27.7359 26.3416 28.426 26.2244 29.1552 26.2244C29.1552 26.5108 29.077 26.7843 28.9208 27.0447C28.7906 27.2791 28.5822 27.4613 28.2958 27.5916C28.0874 27.7218 27.7098 27.9301 27.163 28.2166C26.6421 28.477 26.0692 28.7634 25.4442 29.0759C24.8192 29.3624 24.2203 29.6488 23.6473 29.9353C23.1005 30.2218 22.7098 30.4171 22.4755 30.5212C21.9546 30.7556 21.551 30.9119 21.2645 30.99C21.0041 31.0421 20.6395 31.0681 20.1708 31.0681ZM28.2958 27.7478C28.2958 27.6436 28.2958 27.4353 28.2958 27.1228C28.3218 26.7843 28.3348 26.5629 28.3348 26.4587C29.1682 24.5577 30.2359 22.7999 31.538 21.1853C32.84 19.5707 34.3114 18.1384 35.952 16.8884C36.0041 16.8884 36.0822 16.8754 36.1864 16.8494C36.3166 16.7973 36.4078 16.7712 36.4598 16.7712C37.163 16.7712 37.7359 16.9275 38.1786 17.24C38.6473 17.5264 39.0119 17.9171 39.2723 18.4119C39.5588 18.8806 39.7541 19.4145 39.8583 20.0134C39.9624 20.5863 40.0145 21.1462 40.0145 21.6931C40.0145 22.7087 39.7802 23.7764 39.3114 24.8962C38.8427 25.99 38.2046 27.0056 37.3973 27.9431C36.6161 28.8546 35.7177 29.6098 34.702 30.2087C33.6864 30.7817 32.6317 31.0681 31.538 31.0681C30.4442 31.0681 29.6239 30.7817 29.077 30.2087C28.5562 29.6098 28.2958 28.7895 28.2958 27.7478ZM31.3427 27.2791C31.3427 27.5655 31.4598 27.7608 31.6942 27.865C31.9286 27.9692 32.163 28.0212 32.3973 28.0212C33.0484 28.0212 33.6734 27.852 34.2723 27.5134C34.8973 27.1488 35.4442 26.7061 35.913 26.1853C36.4078 25.6384 36.7984 25.0395 37.0848 24.3884C37.3713 23.7374 37.5145 23.1124 37.5145 22.5134C37.5145 22.227 37.4885 21.9145 37.4364 21.5759C37.4104 21.2113 37.3322 20.8988 37.202 20.6384C37.0718 20.352 36.8635 20.1306 36.577 19.9744C36.3166 19.8181 35.939 19.7921 35.4442 19.8962C35.0796 19.9744 34.663 20.3129 34.1942 20.9119C33.7255 21.5108 33.2697 22.2139 32.827 23.0212C32.4104 23.8025 32.0588 24.5968 31.7723 25.4041C31.4859 26.1853 31.3427 26.8103 31.3427 27.2791ZM41.9677 29.2712C41.9677 29.0369 41.9677 28.8546 41.9677 28.7244C41.9677 28.5942 41.9807 28.477 42.0067 28.3728C42.0588 28.2426 42.1239 28.1124 42.202 27.9822C42.2802 27.852 42.3843 27.6827 42.5145 27.4744C42.7229 27.1098 43.1135 26.4718 43.6864 25.5603C44.2593 24.6488 44.8713 23.6853 45.5223 22.6697C46.1734 21.6541 46.7854 20.6905 47.3583 19.7791C47.9572 18.8676 48.3739 18.2296 48.6083 17.865C48.6343 17.8389 48.6994 17.8259 48.8036 17.8259C48.9338 17.8259 49.0249 17.8259 49.077 17.8259C49.1291 17.8259 49.2203 17.8259 49.3505 17.8259C49.4807 17.8259 49.5588 17.8389 49.5848 17.865C49.6109 17.891 49.663 17.9561 49.7411 18.0603C49.8453 18.1645 49.9494 18.2817 50.0536 18.4119C50.1838 18.516 50.288 18.6202 50.3661 18.7244C50.4703 18.8285 50.5484 18.8806 50.6005 18.8806C50.8348 18.8806 51.0822 18.8025 51.3427 18.6462C51.6031 18.49 51.8635 18.3207 52.1239 18.1384C52.4104 17.9301 52.6968 17.7478 52.9833 17.5916C53.2697 17.4353 53.5692 17.3572 53.8817 17.3572C54.2203 17.3572 54.5328 17.4353 54.8192 17.5916C55.1057 17.7478 55.3531 17.9431 55.5614 18.1775C55.7697 18.4119 55.926 18.6723 56.0302 18.9587C56.1604 19.2452 56.2255 19.5317 56.2255 19.8181C56.2255 20.4171 56.1343 20.99 55.952 21.5369C55.7958 22.0837 55.6135 22.6306 55.4052 23.1775C55.1968 23.6983 55.0015 24.2322 54.8192 24.7791C54.663 25.2999 54.5848 25.8468 54.5848 26.4197C54.5848 26.9926 54.6499 27.4093 54.7802 27.6697C54.9104 27.9041 55.2749 28.0212 55.8739 28.0212C56.577 28.0212 57.2411 27.9171 57.8661 27.7087C58.5171 27.5004 59.1812 27.3962 59.8583 27.3962C59.8583 28.0212 59.663 28.5421 59.2723 28.9587C58.9078 29.3754 58.439 29.7139 57.8661 29.9744C57.3192 30.2087 56.7203 30.378 56.0692 30.4822C55.4442 30.5603 54.8713 30.5994 54.3505 30.5994C53.3609 30.5994 52.6317 30.3259 52.163 29.7791C51.7203 29.2061 51.4989 28.4509 51.4989 27.5134C51.4989 26.8884 51.6031 26.3025 51.8114 25.7556C52.0458 25.2087 52.2932 24.6749 52.5536 24.1541C52.84 23.6332 53.1005 23.1124 53.3348 22.5916C53.5692 22.0707 53.6864 21.5108 53.6864 20.9119C53.6864 20.7556 53.6604 20.5473 53.6083 20.2869C53.5562 20.0264 53.3869 19.8962 53.1005 19.8962C52.2411 19.8962 51.4598 20.1697 50.7567 20.7166C50.0796 21.2634 49.4546 21.9535 48.8817 22.7869C48.3348 23.6202 47.827 24.5186 47.3583 25.4822C46.9156 26.4457 46.4859 27.3442 46.0692 28.1775C45.6786 29.0108 45.301 29.7009 44.9364 30.2478C44.5718 30.7947 44.1942 31.0681 43.8036 31.0681C43.2567 31.0681 42.814 30.8988 42.4755 30.5603C42.1369 30.2218 41.9677 29.7921 41.9677 29.2712ZM88.2567 16.8884C87.6578 16.9666 86.9677 17.3442 86.1864 18.0212C85.4052 18.6723 84.6499 19.4796 83.9208 20.4431C83.2177 21.3806 82.6187 22.4093 82.1239 23.5291C81.6291 24.6228 81.3817 25.6384 81.3817 26.5759C81.3817 27.3311 81.577 27.865 81.9677 28.1775C82.3583 28.4639 82.9182 28.6072 83.6473 28.6072C84.4286 28.6072 85.1838 28.516 85.913 28.3337C86.6682 28.1254 87.4104 27.9171 88.1395 27.7087C88.8947 27.4744 89.6369 27.266 90.3661 27.0837C91.1213 26.8754 91.8895 26.7712 92.6708 26.7712C92.6708 27.1358 92.6187 27.4483 92.5145 27.7087C92.4104 27.9431 92.2541 28.2035 92.0458 28.49C90.6916 29.141 89.2984 29.74 87.8661 30.2869C86.4338 30.8077 84.9364 31.0681 83.3739 31.0681C82.9052 31.0681 82.4104 30.99 81.8895 30.8337C81.3687 30.6514 80.8869 30.4041 80.4442 30.0916C80.0015 29.7791 79.6239 29.4014 79.3114 28.9587C79.0249 28.516 78.8817 28.0212 78.8817 27.4744C78.8817 26.3025 79.051 25.1697 79.3895 24.0759C79.7281 22.9561 80.1968 21.9014 80.7958 20.9119C81.3947 19.9223 82.1109 19.0108 82.9442 18.1775C83.8036 17.3442 84.7281 16.615 85.7177 15.99V15.9509C86.1083 15.7166 86.551 15.4952 87.0458 15.2869C87.5666 15.0525 88.0484 14.9223 88.4911 14.8962C88.9338 14.8442 89.2984 14.9483 89.5848 15.2087C89.8973 15.4431 90.0536 15.8988 90.0536 16.5759C90.0536 16.8884 90.0275 17.3051 89.9755 17.8259C89.9234 18.3207 89.7802 18.6723 89.5458 18.8806C89.3374 19.0108 89.064 19.128 88.7255 19.2322C88.5692 19.2843 88.413 19.3233 88.2567 19.3494V16.8884ZM105.796 31.0681C105.145 31.1723 104.546 31.0681 103.999 30.7556C103.478 30.4171 103.061 29.9874 102.749 29.4666C102.436 28.9197 102.254 28.3337 102.202 27.7087C102.15 27.0577 102.28 26.4718 102.593 25.9509C103.738 24.4666 104.52 23.2947 104.936 22.4353C105.353 21.5499 105.496 20.9379 105.366 20.5994C105.262 20.2348 104.936 20.0916 104.39 20.1697C103.869 20.2218 103.231 20.4561 102.475 20.8728C101.72 21.2634 100.9 21.7843 100.015 22.4353C99.1552 23.0863 98.3479 23.8025 97.5927 24.5837C96.8374 25.365 96.1734 26.1853 95.6005 27.0447C95.0536 27.878 94.702 28.6983 94.5458 29.5056C94.2854 29.6619 94.064 29.7921 93.8817 29.8962C93.6994 29.9744 93.4911 30.0134 93.2567 30.0134C92.8661 30.0134 92.6317 29.8832 92.5536 29.6228C92.4755 29.3624 92.4364 29.0889 92.4364 28.8025C92.4364 28.1514 92.6317 27.4874 93.0223 26.8103C93.439 26.1072 93.9078 25.4561 94.4286 24.8572C94.9755 24.2322 95.4963 23.6723 95.9911 23.1775C96.4859 22.6567 96.8374 22.24 97.0458 21.9275C97.6968 20.8598 98.3479 19.7139 98.9989 18.49C99.6499 17.24 100.301 15.977 100.952 14.7009C101.603 13.3988 102.267 12.1228 102.944 10.8728C103.647 9.59676 104.377 8.38582 105.132 7.23999C105.262 7.03166 105.366 6.88843 105.444 6.8103C105.548 6.73218 105.692 6.69312 105.874 6.69312C106.082 6.69312 106.238 6.73218 106.343 6.8103C106.447 6.88843 106.551 7.03166 106.655 7.23999C106.655 7.34416 106.629 7.51343 106.577 7.7478C106.551 7.98218 106.512 8.24259 106.46 8.52905C106.434 8.78947 106.382 9.03687 106.304 9.27124C106.252 9.50562 106.212 9.66187 106.186 9.73999C106.03 10.0525 105.77 10.5994 105.405 11.3806C105.041 12.1619 104.637 12.9952 104.194 13.8806C103.778 14.766 103.374 15.6384 102.983 16.4978C102.593 17.3311 102.306 17.9561 102.124 18.3728C102.515 18.1124 102.866 17.9171 103.179 17.7869C103.491 17.6306 103.791 17.5264 104.077 17.4744C104.39 17.3962 104.702 17.3572 105.015 17.3572C105.353 17.3311 105.718 17.3181 106.108 17.3181C107.046 17.5525 107.658 17.9041 107.944 18.3728C108.257 18.8416 108.348 19.3884 108.218 20.0134C108.113 20.6124 107.866 21.2764 107.475 22.0056C107.085 22.7348 106.668 23.477 106.225 24.2322C105.809 24.9613 105.431 25.6775 105.093 26.3806C104.754 27.0577 104.598 27.6827 104.624 28.2556C104.624 28.49 104.676 28.6593 104.78 28.7634C104.884 28.8676 105.015 28.9457 105.171 28.9978C105.327 29.0499 105.496 29.0759 105.679 29.0759C105.861 29.0759 106.03 29.0759 106.186 29.0759C106.733 29.0759 107.254 28.9978 107.749 28.8416C108.27 28.6593 108.778 28.4639 109.272 28.2556C109.767 28.0473 110.262 27.865 110.757 27.7087C111.278 27.5264 111.811 27.4353 112.358 27.4353C112.358 27.9301 112.111 28.3988 111.616 28.8416C111.121 29.2843 110.522 29.6749 109.819 30.0134C109.142 30.3259 108.426 30.5863 107.671 30.7947C106.916 30.977 106.291 31.0681 105.796 31.0681ZM111.069 28.9978C110.627 28.0082 110.431 27.0447 110.483 26.1072C110.535 25.1436 110.744 24.2452 111.108 23.4119C111.499 22.5525 111.994 21.7843 112.593 21.1072C113.218 20.4041 113.882 19.8051 114.585 19.3103C115.288 18.7895 115.991 18.3988 116.694 18.1384C117.423 17.878 118.061 17.7738 118.608 17.8259C119.155 17.852 119.585 18.0473 119.897 18.4119C120.21 18.7764 120.314 19.3363 120.21 20.0916C120.21 21.1072 119.884 21.9926 119.233 22.7478C118.608 23.503 117.905 24.1801 117.124 24.7791C116.369 25.378 115.666 25.9249 115.015 26.4197C114.39 26.8884 114.077 27.3311 114.077 27.7478C114.077 27.9822 114.207 28.1645 114.468 28.2947C114.754 28.4249 115.08 28.5291 115.444 28.6072C115.809 28.6593 116.173 28.6983 116.538 28.7244C116.903 28.7504 117.163 28.7764 117.319 28.8025C119.767 28.2817 121.603 27.9692 122.827 27.865C124.051 27.7348 124.819 27.7478 125.132 27.9041C125.444 28.0343 125.379 28.2556 124.936 28.5681C124.52 28.8546 123.869 29.1671 122.983 29.5056C122.098 29.8181 121.069 30.1046 119.897 30.365C118.725 30.6254 117.567 30.7817 116.421 30.8337C115.275 30.8598 114.207 30.7426 113.218 30.4822C112.254 30.2218 111.538 29.727 111.069 28.9978ZM117.905 20.0916C117.384 20.0916 116.89 20.2348 116.421 20.5212C115.952 20.8077 115.522 21.1723 115.132 21.615C114.767 22.0317 114.455 22.5004 114.194 23.0212C113.934 23.516 113.738 23.9848 113.608 24.4275C113.66 24.4535 113.699 24.4666 113.725 24.4666H113.843C114.207 24.4666 114.624 24.3103 115.093 23.9978C115.561 23.6853 116.004 23.3077 116.421 22.865C116.837 22.3962 117.189 21.9145 117.475 21.4197C117.762 20.9249 117.905 20.4822 117.905 20.0916ZM132.905 28.0212C132.905 27.24 133.061 26.5238 133.374 25.8728C133.712 25.1957 134.077 24.5577 134.468 23.9587C134.858 23.3598 135.21 22.7608 135.522 22.1619C135.861 21.5629 136.03 20.9249 136.03 20.2478C136.03 20.0916 136.017 19.9093 135.991 19.7009C135.991 19.4666 135.965 19.2452 135.913 19.0369C135.887 18.8285 135.809 18.6593 135.679 18.5291C135.574 18.3728 135.431 18.2947 135.249 18.2947C135.223 18.2947 135.171 18.3077 135.093 18.3337C135.041 18.3337 135.015 18.3468 135.015 18.3728C134.65 18.8676 134.207 19.4275 133.686 20.0525C133.192 20.6514 132.658 21.2504 132.085 21.8494C131.512 22.4483 130.952 23.0212 130.405 23.5681C129.858 24.115 129.363 24.5707 128.921 24.9353C128.608 25.2218 128.179 25.6124 127.632 26.1072C127.111 26.602 126.577 27.0968 126.03 27.5916C125.509 28.0603 125.041 28.477 124.624 28.8416C124.233 29.2061 124.012 29.3884 123.96 29.3884L122.163 27.865C122.397 27.865 122.632 27.8129 122.866 27.7087C123.074 27.6046 123.283 27.4874 123.491 27.3572C125.054 26.3155 126.46 25.1176 127.71 23.7634C128.986 22.4093 130.236 20.9509 131.46 19.3884C131.512 19.3103 131.642 19.0889 131.85 18.7244C132.085 18.3337 132.332 17.9041 132.593 17.4353C132.853 16.9405 133.113 16.4587 133.374 15.99C133.634 15.4952 133.83 15.1046 133.96 14.8181C134.116 14.4796 134.207 14.2061 134.233 13.9978C134.285 13.7895 134.324 13.6332 134.35 13.5291C134.403 13.3988 134.481 13.3077 134.585 13.2556C134.689 13.2035 134.91 13.1775 135.249 13.1775C135.301 13.1775 135.418 13.1905 135.6 13.2166C135.809 13.2426 135.939 13.2686 135.991 13.2947C136.33 13.9978 136.629 14.6228 136.89 15.1697C137.15 15.7166 137.371 16.2374 137.554 16.7322C137.736 17.2009 137.866 17.6827 137.944 18.1775C138.048 18.6723 138.1 19.2192 138.1 19.8181C137.762 20.6775 137.384 21.5629 136.968 22.4744C136.551 23.3598 136.199 24.2061 135.913 25.0134C135.627 25.8207 135.444 26.5499 135.366 27.2009C135.314 27.852 135.457 28.3728 135.796 28.7634C136.16 29.128 136.759 29.3233 137.593 29.3494C138.452 29.3754 139.663 29.1541 141.225 28.6853C141.642 28.8936 141.681 29.1541 141.343 29.4666C141.004 29.753 140.483 30.0264 139.78 30.2869C139.103 30.5473 138.348 30.7686 137.515 30.9509C136.707 31.1072 136.03 31.1462 135.483 31.0681C134.988 31.0681 134.572 30.99 134.233 30.8337C133.921 30.6514 133.66 30.4171 133.452 30.1306C133.27 29.8442 133.127 29.5186 133.022 29.1541C132.944 28.7895 132.905 28.4119 132.905 28.0212ZM139.233 28.49C139.233 28.1254 139.272 27.8129 139.35 27.5525C139.429 27.266 139.572 26.9014 139.78 26.4587C139.962 26.1983 140.288 25.7035 140.757 24.9744C141.252 24.2452 141.759 23.477 142.28 22.6697C142.827 21.8624 143.335 21.1072 143.804 20.4041C144.298 19.6749 144.637 19.1671 144.819 18.8806C145.054 18.5421 145.236 18.3598 145.366 18.3337C145.496 18.3077 145.744 18.2947 146.108 18.2947C146.343 18.2947 146.59 18.3077 146.85 18.3337C147.137 18.3598 147.319 18.5421 147.397 18.8806C147.033 19.766 146.538 20.6124 145.913 21.4197C145.314 22.2009 144.715 22.9822 144.116 23.7634C143.543 24.5447 143.035 25.352 142.593 26.1853C142.15 26.9926 141.929 27.865 141.929 28.8025C142.033 28.8025 142.189 28.8155 142.397 28.8416C142.632 28.8676 142.879 28.8936 143.14 28.9197C143.4 28.9457 143.634 28.9718 143.843 28.9978C144.077 29.0238 144.246 29.0238 144.35 28.9978C144.507 28.9718 144.767 28.9197 145.132 28.8416C145.522 28.7374 145.926 28.6332 146.343 28.5291C146.785 28.4249 147.202 28.3207 147.593 28.2166C147.983 28.1124 148.257 28.0343 148.413 27.9822C148.413 28.0343 148.413 28.1254 148.413 28.2556C148.439 28.3598 148.452 28.4379 148.452 28.49C148.452 29.0108 148.205 29.4405 147.71 29.7791C147.241 30.1176 146.681 30.391 146.03 30.5994C145.405 30.7817 144.754 30.9119 144.077 30.99C143.426 31.0421 142.918 31.0681 142.554 31.0681C142.163 31.0681 141.759 31.0291 141.343 30.9509C140.952 30.8468 140.6 30.6905 140.288 30.4822C139.975 30.2738 139.715 30.0134 139.507 29.7009C139.324 29.3624 139.233 28.9587 139.233 28.49ZM150.6 5.59937C150.939 5.59937 151.252 5.61239 151.538 5.63843C151.824 5.66447 152.072 5.72957 152.28 5.83374C152.488 5.93791 152.658 6.09416 152.788 6.30249C152.918 6.51082 152.983 6.79728 152.983 7.16187C152.983 7.31812 152.983 7.48739 152.983 7.66968C152.983 7.85197 152.957 8.03426 152.905 8.21655C152.879 8.3728 152.814 8.51603 152.71 8.64624C152.606 8.75041 152.436 8.80249 152.202 8.80249C151.837 8.80249 151.538 8.67228 151.304 8.41187C151.095 8.15145 150.939 7.85197 150.835 7.51343C150.731 7.14884 150.666 6.78426 150.64 6.41968C150.613 6.05509 150.6 5.78166 150.6 5.59937Z" fill="white"/>
<path d="M119.635 12.0355C119.872 11.9207 120.083 11.8355 120.279 11.7651C120.361 11.7131 120.411 11.6913 120.422 11.7046C120.426 11.7092 120.398 11.7232 120.333 11.746C120.315 11.7523 120.297 11.7587 120.279 11.7651C120.166 11.8363 119.992 11.9641 119.768 12.1359C119.562 12.2947 119.363 12.5063 119.117 12.7864C118.574 13.4039 118.251 13.8417 118.163 13.9534C118.136 13.9881 118.112 14.0188 118.09 14.0449C118.057 14.0823 118.028 14.1103 117.997 14.127C117.97 14.1411 117.936 14.1352 117.919 14.1113C117.901 14.0874 117.899 14.0406 117.914 14.006C117.972 13.8735 118.072 13.7824 118.123 13.6377C118.147 13.5688 118.182 13.5048 118.223 13.444C118.208 13.4622 118.193 13.4806 118.177 13.4992C118.097 13.598 118.038 13.6578 117.991 13.6755C117.975 13.6959 117.956 13.708 117.931 13.7081C117.885 13.8876 117.859 14.0199 117.859 13.94C117.859 13.8129 117.845 13.6225 117.942 13.4585C118.083 13.219 118.15 13.0815 118.242 12.9902C118.33 12.854 118.428 12.721 118.511 12.6031C118.606 12.47 118.745 12.42 118.935 12.3035C119.169 12.1601 119.418 12.0937 119.635 12.0355Z" fill="white"/>
<path d="M118.087 14.1081C118.087 14.0086 118.105 13.7565 118.278 13.4007C118.396 13.1582 118.7 12.7497 118.909 12.5058C119.014 12.3835 119.128 12.3051 119.299 12.2101C119.702 11.9873 120.035 11.8506 120.333 11.746C120.398 11.7232 120.426 11.7092 120.422 11.7046C120.395 11.6731 120.155 11.8385 119.768 12.1359C119.562 12.2947 119.363 12.5063 119.117 12.7864C118.574 13.4039 118.251 13.8417 118.163 13.9534C118.097 14.038 118.05 14.0987 117.997 14.127C117.97 14.1411 117.936 14.1352 117.919 14.1113C117.901 14.0874 117.899 14.0406 117.914 14.006C117.972 13.8735 118.072 13.7824 118.123 13.6377C118.203 13.4122 118.392 13.2383 118.55 13.0611C118.608 12.997 118.397 13.2299 118.177 13.4992C118.086 13.6106 118.024 13.6724 117.973 13.6803C117.95 13.6839 117.934 13.6456 117.926 13.6539C117.919 13.6621 117.921 13.7075 117.923 13.7077C118.059 13.7217 118.048 13.3793 118.148 13.2561C118.248 13.1343 118.368 13.0084 118.559 12.8037C118.672 12.682 118.771 12.6248 118.807 12.5929C118.94 12.4729 118.393 12.8655 118.279 12.9571C118.165 13.0477 118.102 13.1881 117.942 13.4585C117.845 13.6225 117.859 13.8129 117.859 13.94C117.86 14.084 117.944 13.539 118.078 13.2705C118.191 13.043 118.37 12.8016 118.511 12.6031C118.606 12.47 118.745 12.42 118.935 12.3035C119.194 12.1442 119.474 12.08 119.706 12.0163C119.786 11.9887 119.852 11.9706 119.922 11.9554C119.957 11.9469 119.989 11.9366 120.015 11.8937" stroke="white" stroke-linecap="round"/>
<path d="M29.4458 57.9709V45.1909H30.2018V51.2929L36.4838 45.1909H37.4558L30.9398 51.4909C31.3358 51.6709 31.7198 52.0369 32.0918 52.5889L34.4678 56.0629C34.8398 56.6149 35.1578 56.9809 35.4218 57.1609C35.6858 57.3289 35.9918 57.4129 36.3398 57.4129C36.6518 57.4129 36.9458 57.3229 37.2218 57.1429L37.4198 57.7189C37.1078 57.9349 36.7238 58.0429 36.2678 58.0429C35.8118 58.0429 35.4038 57.9349 35.0438 57.7189C34.6958 57.5029 34.3358 57.1249 33.9638 56.5849L31.3178 52.7149C31.0178 52.2709 30.6458 52.0189 30.2018 51.9589V57.9709H29.4458ZM44.2841 58.0969C43.1441 58.0969 42.1541 57.8509 41.3141 57.3589C40.4861 56.8669 39.8441 56.1529 39.3881 55.2169C38.9441 54.2809 38.7221 53.1469 38.7221 51.8149C38.7221 50.4829 38.9741 49.3069 39.4781 48.2869C39.9941 47.2549 40.6961 46.4509 41.5841 45.8749C42.4841 45.2989 43.5041 45.0109 44.6441 45.0109C45.7241 45.0109 46.6661 45.2749 47.4701 45.8029C48.2861 46.3309 48.9161 47.0689 49.3601 48.0169C49.8041 48.9529 50.0261 50.0569 50.0261 51.3289C50.0261 52.7089 49.7801 53.9089 49.2881 54.9289C48.7961 55.9369 48.1181 56.7169 47.2541 57.2689C46.3901 57.8209 45.4001 58.0969 44.2841 58.0969ZM44.2841 57.3769C45.2561 57.3769 46.1141 57.1369 46.8581 56.6569C47.6141 56.1769 48.2021 55.4809 48.6221 54.5689C49.0421 53.6569 49.2521 52.5529 49.2521 51.2569C49.2521 50.1289 49.0601 49.1509 48.6761 48.3229C48.3041 47.4949 47.7761 46.8589 47.0921 46.4149C46.4081 45.9709 45.5981 45.7489 44.6621 45.7489C43.6541 45.7489 42.7601 46.0009 41.9801 46.5049C41.2121 46.9969 40.6061 47.7049 40.1621 48.6289C39.7181 49.5409 39.4961 50.6149 39.4961 51.8509C39.4961 53.6269 39.9221 54.9949 40.7741 55.9549C41.6381 56.9029 42.8081 57.3769 44.2841 57.3769ZM62.4942 45.1909H63.1962V57.9709H62.6022L54.4482 46.5409V57.9709H53.7282V45.1909H54.3402L62.4942 56.6209V45.1909ZM67.2845 57.9709V45.1909H70.1465C75.0425 45.1909 77.4905 47.3029 77.4905 51.5269C77.4905 53.5789 76.8905 55.1689 75.6905 56.2969C74.5025 57.4129 72.7865 57.9709 70.5425 57.9709H67.2845ZM68.0405 57.3049H70.4705C74.6345 57.3049 76.7165 55.3849 76.7165 51.5449C76.7165 49.6369 76.1885 48.2149 75.1325 47.2789C74.0765 46.3309 72.4565 45.8569 70.2725 45.8569H68.0405V57.3049ZM81.1923 57.9709V45.1909H81.9483V57.9709H81.1923ZM93.7522 45.1909L93.6982 45.8389H89.5582V57.9709H88.7842V45.8389H84.5542V45.1909H93.7522ZM100.183 58.0969C99.0426 58.0969 98.0526 57.8509 97.2126 57.3589C96.3846 56.8669 95.7426 56.1529 95.2866 55.2169C94.8426 54.2809 94.6206 53.1469 94.6206 51.8149C94.6206 50.4829 94.8726 49.3069 95.3766 48.2869C95.8926 47.2549 96.5946 46.4509 97.4826 45.8749C98.3826 45.2989 99.4026 45.0109 100.543 45.0109C101.623 45.0109 102.565 45.2749 103.369 45.8029C104.185 46.3309 104.815 47.0689 105.259 48.0169C105.703 48.9529 105.925 50.0569 105.925 51.3289C105.925 52.7089 105.679 53.9089 105.187 54.9289C104.695 55.9369 104.017 56.7169 103.153 57.2689C102.289 57.8209 101.299 58.0969 100.183 58.0969ZM100.183 57.3769C101.155 57.3769 102.013 57.1369 102.757 56.6569C103.513 56.1769 104.101 55.4809 104.521 54.5689C104.941 53.6569 105.151 52.5529 105.151 51.2569C105.151 50.1289 104.959 49.1509 104.575 48.3229C104.203 47.4949 103.675 46.8589 102.991 46.4149C102.307 45.9709 101.497 45.7489 100.561 45.7489C99.5526 45.7489 98.6586 46.0009 97.8786 46.5049C97.1106 46.9969 96.5046 47.7049 96.0606 48.6289C95.6166 49.5409 95.3946 50.6149 95.3946 51.8509C95.3946 53.6269 95.8206 54.9949 96.6726 55.9549C97.5366 56.9029 98.7066 57.3769 100.183 57.3769ZM118.249 57.1429L118.429 57.7189C118.273 57.8389 118.099 57.9229 117.907 57.9709C117.715 58.0189 117.511 58.0429 117.295 58.0429C116.851 58.0429 116.449 57.9469 116.089 57.7549C115.741 57.5509 115.369 57.1609 114.973 56.5849L112.255 52.6069C112.123 52.4149 111.931 52.2349 111.679 52.0669C111.439 51.8869 111.151 51.7969 110.815 51.7969H110.365V57.9709H109.627V45.1909H112.975C114.295 45.1909 115.303 45.4849 115.999 46.0729C116.707 46.6489 117.061 47.4349 117.061 48.4309C117.061 49.4749 116.689 50.2969 115.945 50.8969C115.213 51.4969 114.241 51.7969 113.029 51.7969H112.219C112.399 51.8809 112.573 52.0129 112.741 52.1929C112.921 52.3609 113.113 52.5949 113.317 52.8949L115.423 55.9909C115.687 56.3869 115.909 56.6869 116.089 56.8909C116.281 57.0949 116.473 57.2329 116.665 57.3049C116.857 57.3769 117.097 57.4129 117.385 57.4129C117.553 57.4129 117.709 57.3889 117.853 57.3409C117.997 57.2809 118.129 57.2149 118.249 57.1429ZM112.903 45.8389H110.365V51.1849H112.795C113.923 51.1849 114.787 50.9569 115.387 50.5009C115.999 50.0449 116.305 49.3729 116.305 48.4849C116.305 47.6809 116.035 47.0389 115.495 46.5589C114.967 46.0789 114.103 45.8389 112.903 45.8389ZM120.406 57.9709V45.1909H121.162V57.9709H120.406Z" fill="white"/>
</svg>
